<?xml version="1.0" encoding="UTF-8"?>
<svg id="Layer_1" data-name="Layer 1" xmlns="http://www.w3.org/2000/svg" viewBox="0 0 32 32">
  <g style="isolation: isolate;">
    <path d="m18.15,7.61c2.68-1.87,5.41-2.78,8.14-2.78,2.2.06,3.8.77,4.79,2.2,1.07,1.57,1.21,3.69.39,6.39-.9,3.03-2.96,6.31-6.14,9.86-.68.8-2,2.2-3.94,4.16l-3.6,3.91c-.31.39-.68.58-1.13.63-.45.06-.84-.08-1.18-.39-.23-.14-.37-.3-.45-.5-.79.47-1.46.39-2.06-.25-1.52-1.43-2.76-2.67-3.75-3.69-1.01-1.05-2.17-2.4-3.49-4.1-1.32-1.68-2.37-3.25-3.13-4.74-.79-1.46-1.41-3.14-1.94-5.01C.16,11.44-.07,9.6.02,7.78.19,4.75,1.14,2.6,2.92,1.34,3.96.56,5.11.15,6.41.04c1.3-.11,2.51,0,3.6.36,1.13.39,2.2.91,3.24,1.57,2.37,1.54,4,3.42,4.9,5.65Zm-14.59,3.47c.9-2.31,2.06-4.9,3.44-7.77-.82.06-1.52.28-2.14.69-.9.63-1.41,1.93-1.49,3.91-.03,1.05.03,2.12.2,3.17Zm2.53,6.5c.48-1.18,1.35-3.14,2.65-5.87,1.32-2.86,2.34-5.07,2.96-6.64,0-.06.03-.08.06-.14l-.39-.25c-.34-.25-.7-.47-1.1-.63-2.14,4.63-3.83,8.62-5.04,12.01.28.5.56,1.02.87,1.51Zm3.01,4.35c1.21-3.03,2.99-7.11,5.35-12.26.17-.3.39-.52.65-.69-.23-.5-.51-1.02-.84-1.51-.56,1.43-1.38,3.3-2.45,5.62-1.77,3.8-2.79,6-3.04,6.64-.14.39-.39.66-.79.83l1.13,1.38Zm7.89-9.72c-2.2,4.76-3.89,8.65-5.1,11.68-.08.3-.25.52-.51.69l.39.39c.68-1.76,1.69-4.02,3.04-6.75l3.01-6.14c-.23.08-.45.14-.7.14h-.14Zm4.28.39c-.39.85-1.52,3.17-3.44,7.02-1.38,2.81-2.39,5.12-3.04,6.94-.14.33-.37.61-.7.83l1.15,1.21c.14.08.23.19.25.3.73-.85,1.69-1.85,2.84-3.03-.48.22-.96.19-1.41-.06-.42-.17-.73-.47-.87-.88s-.11-.85.08-1.27c.68-1.43,2.03-3.88,4-7.33,1.77-3.03,3.01-5.4,3.75-7.13.17-.41.48-.72.9-.88-1.72.33-3.32,1.02-4.79,2.01.14.06.23.08.31.14.42.22.73.52.9.94.23.39.23.8.06,1.18Zm-1.18,10.6l-.9,1.71,1.41-1.38c-.08-.06-.14-.08-.2-.14-.11-.06-.23-.11-.31-.19Zm5.83-10.41l.37.11c.39.25.65.61.79,1.05s.08.85-.14,1.24l-2.25,3.72c1.77-2.29,2.96-4.41,3.55-6.39.51-1.76.54-3,.06-3.66-.34-.5-1.01-.77-2-.77-.23,0-.45.03-.7.06.17,0,.34.06.51.14.42.17.73.47.9.88s.17.85,0,1.27l-1.07,2.37Z" style="fill: #e17e99;"/>
  </g>
</svg>